# xmcd
#
# Track frame offsets: 
#        150
#        16573
#        31957
#        44226
#        52328
#        70864
#        77696
#        93712
#        103399
#        116850
#        130269
#        195211
#        218951
#
# Disc length: 3138 seconds
#
# Revision: 2
# Processed by: cddbd v1.5.1PL0 Copyright (c) Steve Scherf et al.
# Submitted via: ExactAudioCopy v0.95b3
#
DISCID=be0c400d
DTITLE=Willie Nelson - Willie And Family Live [CD1]
DYEAR=2003
DGENRE=Country
TTITLE0=Whiskey River
TTITLE1=Stay A Little Longer
TTITLE2=Funny How Time Slips By
TTITLE3=Crazy
TTITLE4=Night Life
TTITLE5=If You've Got The Money I've Got The Time
TTITLE6=Mammas Don't Let Your Babies Grow Up To Be Cowboys
TTITLE7=I Can Get Off On You
TTITLE8=If You Could Touch Her At All
TTITLE9=Good Hearted Woman
TTITLE10=Red Headed Stranger Medley
TTITLE11=Under The Double Eagle
TTITLE12=Data
EXTD=YEAR: 2003
EXTT0=
EXTT1=
EXTT2=
EXTT3=
EXTT4=
EXTT5=
EXTT6=
EXTT7=
EXTT8=
EXTT9=
EXTT10=
EXTT11=
EXTT12=
PLAYORDER=
